Coordinates
version=1
nRows=8
nColumns=36
inDegrees=yes

Units are S.I. units (second, meters, Newtons, ...)
If the header above contains a line with 'inDegrees', this indicates whether rotational values are in degrees (yes) or radians (no).

endheader
time	pelvis_tilt	pelvis_list	pelvis_rotation	pelvis_tx	pelvis_ty	pelvis_tz	hip_flexion_r	hip_adduction_r	hip_rotation_r	knee_angle_r	knee_angle_r_beta	ankle_angle_r	subtalar_angle_r	mtp_angle_r	hip_flexion_l	hip_adduction_l	hip_rotation_l	knee_angle_l	knee_angle_l_beta	ankle_angle_l	subtalar_angle_l	mtp_angle_l	lumbar_extension	lumbar_bending	lumbar_rotation	arm_flex_r	arm_add_r	arm_rot_r	elbow_flex_r	pro_sup_r	arm_flex_l	arm_add_l	arm_rot_l	elbow_flex_l	pro_sup_l
      0.00000000	      3.20997239	     -0.93816188	      5.41182972	     -0.11993362	      1.39973040	     -0.11899362	      6.41575852	     -3.08169064	     -3.82593493	     29.69472059	      0.51827064	     11.78926189	    -10.26800570	     -6.64477488	     -2.82085068	     -0.69140529	     -3.57412543	      9.63251558	      0.16811911	     16.11078668	      1.85267131	     -6.64477488	    -14.31179843	     -3.69308809	     -6.42990999	      6.38820117	    -14.46954504	     12.90093151	     33.55000020	     90.54337650	      4.06059174	    -21.09760299	     23.89010515	     27.51719111	     80.53864042
      0.01666670	      2.62964253	     -0.33833390	      4.32053725	     -0.12165596	      1.39364561	     -0.11733473	      6.50080754	     -4.52241527	     -6.32039032	     28.45506196	      0.49663452	     11.76407654	     -7.31554797	     -6.75634211	     -2.30082739	      0.32170839	     -6.80156113	      9.99876755	      0.17451141	     15.53464103	      2.54923521	     -6.75634211	    -13.04377590	     -5.65168329	     -6.05503320	      8.48252069	    -16.11522602	     21.55327412	     31.86649222	     96.39287973	      3.95787022	    -22.62450038	     28.28248528	     28.88819979	     83.67831387
      0.03333330	      3.49788765	     -0.36683510	      3.50348525	     -0.12325710	      1.39094893	     -0.11612909	      5.41923429	     -4.83248171	     -7.75906435	     26.95752455	      0.47049756	     12.51917428	     -5.87559005	     -6.83455559	     -3.97584349	      0.53691068	     -7.78429539	      8.87795450	      0.15494954	     14.96696043	      2.10610003	     -6.83455559	    -14.01628934	     -6.07119346	     -5.59079670	      8.44055629	    -17.11129741	     22.69337025	     33.28530775	    101.65765846	      4.22097875	    -22.87863830	     27.87596114	     29.96164508	     87.14285353
      0.05000000	      4.27943833	     -0.17965587	      3.20666742	     -0.12390415	      1.39210195	     -0.11563922	      4.42343164	     -5.12320956	     -8.36323125	     25.93794717	      0.45270258	     12.93240784	     -6.11577154	     -6.88005657	     -4.86921546	      0.91014741	     -8.83138966	      8.87272730	      0.15485830	     15.17491389	      2.20583978	     -6.88005657	    -14.89749207	     -6.59457463	     -5.35548099	      7.95277867	    -17.70175481	     22.89392740	     34.07215708	    101.17761721	      4.33554213	    -23.32292365	     27.80360194	     30.85873696	     86.52371112
      0.06666670	      4.74115472	     -0.16396665	      3.07412601	     -0.11479454	      1.39681520	     -0.11846173	      3.23198132	     -4.90190772	     -8.47775302	     24.02397727	      0.41929750	     13.62422366	     -6.20160794	     -6.89070356	     -5.63298598	      1.10128463	     -8.74298783	      8.63311715	      0.15067632	     15.39100516	      1.95875747	     -6.89070356	    -15.18552467	     -6.78603416	     -5.09537813	      7.34852084	    -18.05825661	     22.83700041	     33.54782493	    101.15623004	      4.31316245	    -23.46450963	     27.84328833	     31.11444725	     86.35603015
      0.08333330	      4.94858541	     -0.16978269	      3.02609310	     -0.11544083	      1.39387520	     -0.11814776	      2.09106354	     -4.54385049	     -8.55746285	     22.33025050	      0.38973639	     13.88406541	     -6.34729320	     -6.91778373	     -5.87286119	      1.28957846	     -8.38271071	      8.49968066	      0.14834741	     15.32502624	      1.40881464	     -6.91778373	    -14.93251253	     -6.89494857	     -4.73852512	      6.83474713	    -18.17947894	     22.47766094	     32.65983334	     99.81316919	      4.92886870	    -23.44853242	     28.70221716	     30.48391998	     84.68079346
      0.10000000	      4.85069080	     -0.33735952	      3.02188991	     -0.11616734	      1.39417057	     -0.11836937	      1.42241225	     -4.19332736	     -8.98245239	     21.28613254	      0.37151310	     13.65995124	     -6.43298836	     -6.98179153	     -5.91599229	      1.25412421	     -8.20545253	      8.15005986	      0.14224538	     15.30923776	      1.06163590	     -6.98179153	    -14.40413786	     -6.71439130	     -4.33132125	      6.19100203	    -18.31329514	     21.91271265	     31.66444938	     98.70777542	      5.35952275	    -23.39071567	     29.87758213	     29.98052549	     82.77520758
      0.11666670	      4.78653709	     -0.39505070	      3.09335333	     -0.11576629	      1.39447962	     -0.11815798	      0.51266181	     -3.86192298	     -9.28591658	     19.76585672	      0.34497928	     13.46835981	     -6.22849102	     -7.02532764	     -6.17891706	      1.29733837	     -7.85213697	      7.41077798	      0.12934248	     14.94972730	      0.83056993	     -7.02532764	    -14.12277409	     -6.58775544	     -4.18306316	      5.41812617	    -18.59516879	     21.57336688	     31.85726503	     97.23426507	      5.30601892	    -23.51253238	     30.09088770	     30.37351823	     81.08586173
